<svg id="Layer_1" data-name="Layer 1" xmlns="http://www.w3.org/2000/svg" viewBox="0 0 286.24 92.48"><defs><style>.cls-1{fill:#fff;}.cls-2{font-size:57.13px;font-family:Magnolia-Script, Magnolia Script;}.cls-3{fill:red;}.cls-4{fill:#f6f5db;}.cls-5{fill:#681b28;}</style></defs><title>kolinje_navbar_logo</title><path class="cls-1" d="M120.87,77.24a9.94,9.94,0,0,1-8-6.29,15.19,15.19,0,0,1-.41-8l2.25-12.85a14.63,14.63,0,0,1-1.5-.18,12.46,12.46,0,0,1-10.51-12.63,15.4,15.4,0,0,1,6.77-12.84c3.76-2.66,8.87-4.07,14.77-4.07h3.95a16.67,16.67,0,0,1,2.93.23,10.26,10.26,0,0,1,6.9,4.21,9.66,9.66,0,0,1,1,1.91,20.34,20.34,0,0,1,2.67-2.89,13.22,13.22,0,0,1,8.91-3.46,15,15,0,0,1,2.44.2,11.33,11.33,0,0,1,9.5,11.51,12,12,0,0,1-6.11,10.58l-8,4.31-.32-1.25h0c-.15.29-.3.58-.46.87a15.58,15.58,0,0,1,2,4.51l.59,2.17h4.11a8.43,8.43,0,0,1,1.52.13,8.15,8.15,0,0,1,6.66,9.38c-.85,6.8-8.63,14.71-17.38,14.71a16,16,0,0,1-2.7-.23,13.08,13.08,0,0,1-7.45-4l-4.17,2.6a13.17,13.17,0,0,1-7,1.66A16.63,16.63,0,0,1,120.87,77.24Z" transform="translate(-5.7 -5)"/><path class="cls-1" d="M137.74,63.25l-2.29-8.85c-.63-2.46-1.6-3.72-3.88-3.72h-2.06l-2.4,13.66c-.69,4-.06,5.43-.06,5.43a6.65,6.65,0,0,1-3.25.57c-4.23,0-5-1.83-4.29-6.23l5.37-30.68a20.43,20.43,0,0,0,.29-2.8h-.52c-5.2,0-7.77,2.91-7.77,6.17,0,1.6.86,2.63,2.29,2.63a2.34,2.34,0,0,0,1-.17,1.69,1.69,0,0,1,.06.51c0,1.37-1.43,3.2-4.35,3.2-3.71,0-6-2.28-6-5.71,0-5.66,5.2-9.77,14.4-9.77h3.95c4.22,0,5.08,1.83,4.28,6.23L130,47.54h1.83c2.34,0,4.52-1.88,6.8-6l3.77-6.85c2.8-5.09,5.2-7.2,8.23-7.2s4.8,1.71,4.8,4.57a4.92,4.92,0,0,1-2.34,4.28,3.42,3.42,0,0,0-3.37-2.45c-2.58,0-4.29,1.54-6,4.68l-2,3.83c-1.48,2.86-2.91,4.91-4.51,5.66,3,.28,4.68,1.94,5.48,4.91L145,61.08c.8,2.92,1.72,4.29,3.55,4.29,2.62,0,5.14-3.54,5.82-5,.86,0,1.2.57,1.09,1.48-.4,3.2-5.09,8.46-10.29,8.46C141.11,70.34,138.94,67.83,137.74,63.25Z" transform="translate(-5.7 -5)"/><path class="cls-1" d="M159.07,77.18c-8.59-1.51-14.14-8.48-14.14-17.75,0-6.9,2.09-12.92,6-17.42a22.1,22.1,0,0,1,16.94-7.38,20.06,20.06,0,0,1,3.59.31A16.3,16.3,0,0,1,184,44.69h1.07a8.9,8.9,0,0,1,1.46.12,8.19,8.19,0,0,1,6.64,9.39l0,.13,0,.13c-.75,4.39-4.91,8.46-10.2,10.44a21.86,21.86,0,0,1-20.32,12.58A20.39,20.39,0,0,1,159.07,77.18Z" transform="translate(-5.7 -5)"/><path class="cls-1" d="M178.42,52.68a24.3,24.3,0,0,1-.29,3.6c4.29-.62,6.91-4.45,6.91-4.45.75,0,1.15.57,1,1.43-.34,2-3.94,5.08-8.51,5.65-1.94,6.8-7.2,11.43-15,11.43-6.06,0-10.51-3.83-10.51-10.91,0-10.35,6-17.66,15.82-17.66C174.59,41.77,178.42,46.17,178.42,52.68ZM171.05,49c-.29-2.86-1.6-4.4-3.72-4.4-2.85,0-5.83,2.92-7.43,11.43a42.46,42.46,0,0,0-.51,5.88c0,3.6,1.37,5.6,3.77,5.6,3.09,0,5.66-3.25,7.14-10.11a5.42,5.42,0,0,1-2.17-4.51A3.69,3.69,0,0,1,171.05,49Z" transform="translate(-5.7 -5)"/><path class="cls-1" d="M187,77.25a13.08,13.08,0,0,1-8.22-4.88,14.79,14.79,0,0,1-2.94-9.17,39.33,39.33,0,0,1,.63-6.66l5.2-29.44a12.9,12.9,0,0,0,.18-1.64l-2.14-4.93,5.37-3.22a12.79,12.79,0,0,1,6.65-1.54,18.19,18.19,0,0,1,3.1.25,9.68,9.68,0,0,1,7.87,6.28,14.43,14.43,0,0,1,.3,7.48l-4.14,23.48h.3a8.4,8.4,0,0,1,1.51.13,8.16,8.16,0,0,1,6.62,9.67l0,.07v.08a18.07,18.07,0,0,1-5.59,9.28,17.84,17.84,0,0,1-12,5A15.69,15.69,0,0,1,187,77.25Zm10.34-15.16Z" transform="translate(-5.7 -5)"/><path class="cls-1" d="M188.7,28.34c.63-3.59.06-4.91.06-4.91a6.27,6.27,0,0,1,3-.51c4.4,0,4.91,1.65,4.23,5.65l-5.6,31.77c-.57,3.37.4,5,2.45,5,2.29,0,4.86-1.89,6.35-5,.74,0,1.25.45,1.08,1.48-.57,3-5,8.46-10.57,8.46-3.94,0-6.68-2.57-6.68-7.14a33.17,33.17,0,0,1,.51-5.43Z" transform="translate(-5.7 -5)"/><path class="cls-1" d="M202.6,77.25a13.08,13.08,0,0,1-8.22-4.88,14.79,14.79,0,0,1-2.94-9.17,40.06,40.06,0,0,1,.62-6.66L193.89,46a15,15,0,0,0,.19-1.63l-2.24-4.91,4.52-2.71a10.8,10.8,0,0,1-.58-3.53A11.21,11.21,0,0,1,206.93,22a10.85,10.85,0,0,1,2,.17,10.51,10.51,0,0,1,8.71,10.57,11,11,0,0,1-3,7.6c.14.31.26.6.36.86a14.43,14.43,0,0,1,.29,7.48l-.8,4.63a8.28,8.28,0,0,1,1.5.13,8.15,8.15,0,0,1,6.62,9.67v.07l0,.08a18.24,18.24,0,0,1-5.3,9.17,17.25,17.25,0,0,1-11.94,5.1A15.6,15.6,0,0,1,202.6,77.25Z" transform="translate(-5.7 -5)"/><path class="cls-1" d="M200.93,47.2c.62-3.66,0-4.91,0-4.91a6.22,6.22,0,0,1,3-.52c4.4,0,4.92,1.66,4.23,5.66L206,60.34c-.57,3.43.4,5,2.46,5s4.51-1.89,6-5c.74,0,1.26.45,1.09,1.48-.58,3-4.69,8.46-10.23,8.46-3.94,0-6.69-2.57-6.69-7.14a33.43,33.43,0,0,1,.52-5.43Zm6-18.11a3.4,3.4,0,0,1,3.54,3.6,4,4,0,0,1-4.12,3.94,3.27,3.27,0,0,1-3.42-3.43A4,4,0,0,1,206.93,29.09Z" transform="translate(-5.7 -5)"/><path class="cls-1" d="M214.67,77.24A9.66,9.66,0,0,1,206.81,71a14.43,14.43,0,0,1-.3-7.48l3-17.5a12.14,12.14,0,0,0,.19-1.67l-2.14-4.92L213,36.16a12.93,12.93,0,0,1,6.65-1.53,17.42,17.42,0,0,1,3.11.25,10.88,10.88,0,0,1,4.38,1.73,15.76,15.76,0,0,1,7.48-2,14.2,14.2,0,0,1,2.54.22,12.55,12.55,0,0,1,10.49,12.81,35.32,35.32,0,0,1-.58,5.6,8.23,8.23,0,0,1,8,9.76c-1,6-7.93,14.46-17.11,14.46a16.34,16.34,0,0,1-2.74-.23,13.48,13.48,0,0,1-7.06-3.53L224.43,76a12.93,12.93,0,0,1-6.65,1.53A18.45,18.45,0,0,1,214.67,77.24Z" transform="translate(-5.7 -5)"/><path class="cls-1" d="M233,50.4c.46-2.74-.12-3.6-1.37-3.6-3.6,0-9,8.51-10.8,18.11-.63,3.6-.06,4.92-.06,4.92a6.32,6.32,0,0,1-3,.51c-4.4,0-4.91-1.66-4.23-5.66l3-17.48c.63-3.6.06-4.91.06-4.91a6.22,6.22,0,0,1,3-.52c4.4,0,4.91,1.66,4.23,5.66l-.46,2.63c2.23-3.72,6.57-8.29,11.2-8.29a5.51,5.51,0,0,1,5.88,5.89,30.14,30.14,0,0,1-.51,4.62l-1.37,8.06c-.52,2.8-.06,5,2.34,5s4.51-2,6-5c.74,0,1.26.45,1.09,1.48-.46,2.92-4.75,8.46-10.06,8.46-4.29,0-6.91-2.86-6.91-7.14a50.41,50.41,0,0,1,.85-6.52Z" transform="translate(-5.7 -5)"/><path class="cls-1" d="M233.77,97.25a12.79,12.79,0,0,1-10.85-12.91c0-5.18,2.59-10.25,7.29-14.28a45.45,45.45,0,0,1,8.66-5.76L241.94,46a11.89,11.89,0,0,0,.19-1.66L240,39.39l4.43-2.66a10.8,10.8,0,0,1-.58-3.53A11.21,11.21,0,0,1,255,22a10.88,10.88,0,0,1,2,.17,10.51,10.51,0,0,1,8.71,10.57,11,11,0,0,1-3,7.6c.14.31.26.6.36.86a14.43,14.43,0,0,1,.29,7.48l-.79,4.63a8.15,8.15,0,0,1,8.06,9.9c-.7,3.39-3.32,5.36-4.59,6.31a56.12,56.12,0,0,1-7,4.31c-1.39,6.49-3.56,11.7-6.48,15.54a19.57,19.57,0,0,1-16,8.16A15.92,15.92,0,0,1,233.77,97.25Z" transform="translate(-5.7 -5)"/><path class="cls-1" d="M253.15,65.54s5.88-2.34,9.31-5.14a1,1,0,0,1,1.08,1.31c-.11.57-.74,1.2-1.88,2.06A62.64,62.64,0,0,1,252.57,69l-.11.68c-2.23,13.26-7.54,20.63-16,20.63-3.88,0-6.4-2.46-6.4-6,0-3.37,2-6.46,4.8-8.86A46.37,46.37,0,0,1,245.32,69L249,47.2c.62-3.6.05-4.91.05-4.91a6.22,6.22,0,0,1,3-.52c4.4,0,4.92,1.66,4.23,5.66Zm-8.46,7.09a34.31,34.31,0,0,0-8.06,5.25c-2.22,2.17-3.37,4.12-3.37,6.11a2.39,2.39,0,0,0,2.63,2.58C240,86.57,243,81.77,244.69,72.63ZM255,29.09a3.4,3.4,0,0,1,3.55,3.6,4,4,0,0,1-4.12,3.94A3.28,3.28,0,0,1,251,33.2,4,4,0,0,1,255,29.09Z" transform="translate(-5.7 -5)"/><path class="cls-1" d="M269.83,77.15c-9.37-1.65-15.66-9.37-15.66-19.21a23.37,23.37,0,0,1,7.06-17.07,22.16,22.16,0,0,1,15.17-6.24,23.06,23.06,0,0,1,3.9.32c7.07,1.25,11.64,6.28,11.64,12.82a13.8,13.8,0,0,1-4.41,10,8,8,0,0,1,3.11,7.8c-1,5.83-7.57,11.86-17,11.86A21.83,21.83,0,0,1,269.83,77.15Z" transform="translate(-5.7 -5)"/><path class="cls-1" d="M284.8,47.77c0,6.29-8.57,9-16.06,10.46.57,4.34,3.55,7.6,8.57,7.6,3.89,0,5.37-2.4,5.37-2.4.69,0,1,.34.92,1-.4,2.46-4.23,5.89-9.94,5.89-7.83,0-12.34-5.6-12.34-12.4,0-10.23,7.94-16.17,15.08-16.17C282.51,41.77,284.8,44.69,284.8,47.77Zm-16.06,7.77c7-1.66,9.95-5.2,9.95-8.8a1.88,1.88,0,0,0-2.06-2.11C272.91,44.63,269.31,49.2,268.74,55.54Z" transform="translate(-5.7 -5)"/><text class="cls-2" transform="translate(105.24 65.26)">Kolinje</text><circle cx="44" cy="27.5" r="27.5"/><circle cx="27.5" cy="62.5" r="27.5"/><circle cx="62.5" cy="62.5" r="27.5"/><circle class="cls-3" cx="44" cy="27.5" r="26.25"/><circle class="cls-3" cx="62.55" cy="62.55" r="26.25"/><circle class="cls-3" cx="27.55" cy="62.55" r="26.25"/><circle class="cls-4" cx="36.15" cy="7.75" r="1.25"/><circle class="cls-4" cx="56.25" cy="12.15" r="1.25"/><circle class="cls-4" cx="24.85" cy="25.25" r="1.25"/><circle class="cls-4" cx="43.95" cy="17.15" r="1.25"/><circle class="cls-4" cx="59.35" cy="26.95" r="1.25"/><circle class="cls-4" cx="48.75" cy="7.35" r="1.25"/><circle class="cls-4" cx="34.55" cy="21.95" r="1.25"/><circle class="cls-4" cx="7.45" cy="69.75" r="1.25"/><circle class="cls-4" cx="22.55" cy="66.95" r="1.25"/><circle class="cls-4" cx="21.25" cy="84.05" r="1.25"/><circle class="cls-4" cx="39.15" cy="81.95" r="1.25"/><circle class="cls-4" cx="30.65" cy="75.45" r="1.25"/><circle class="cls-4" cx="16.45" cy="74.95" r="1.25"/><circle class="cls-4" cx="36.25" cy="63.65" r="1.25"/><circle class="cls-4" cx="45.95" cy="74.55" r="1.25"/><circle class="cls-4" cx="63.35" cy="84.05" r="1.25"/><circle class="cls-4" cx="56.25" cy="63.45" r="1.25"/><circle class="cls-4" cx="64.55" cy="74.25" r="1.25"/><circle class="cls-4" cx="84.05" cy="63.85" r="1.25"/><circle class="cls-4" cx="80.85" cy="74.25" r="1.25"/><circle class="cls-4" cx="48.05" cy="66.45" r="0.75"/><circle class="cls-4" cx="53.75" cy="79.45" r="0.75"/><circle class="cls-4" cx="39.85" cy="73.05" r="0.75"/><circle class="cls-4" cx="29.85" cy="69.75" r="0.75"/><circle class="cls-4" cx="73.25" cy="74.55" r="0.75"/><circle class="cls-4" cx="72.35" cy="80.25" r="0.75"/><circle class="cls-4" cx="30.65" cy="83.25" r="0.75"/><circle class="cls-4" cx="23.15" cy="75.85" r="0.75"/><circle class="cls-4" cx="10.35" cy="77.85" r="0.75"/><circle class="cls-4" cx="42.75" cy="11.35" r="0.75"/><circle class="cls-4" cx="29.05" cy="14.55" r="0.75"/><circle class="cls-4" cx="61.95" cy="19.95" r="0.75"/><circle class="cls-4" cx="53.15" cy="22.75" r="0.75"/><circle class="cls-4" cx="48.25" cy="25.25" r="0.75"/><circle class="cls-4" cx="42.75" cy="4.45" r="0.75"/><circle class="cls-5" cx="36.95" cy="14.85" r="1.25"/><circle class="cls-5" cx="50.95" cy="16.55" r="1.25"/><circle class="cls-5" cx="42.75" cy="23.55" r="1.25"/><circle class="cls-5" cx="25.25" cy="19.15" r="1.25"/><circle class="cls-5" cx="64.55" cy="24.55" r="1.25"/><circle class="cls-5" cx="53.75" cy="28.25" r="1.25"/><circle class="cls-5" cx="62.55" cy="14.55" r="1.25"/><circle class="cls-5" cx="15.15" cy="69.05" r="1.25"/><circle class="cls-5" cx="16.45" cy="80.85" r="1.25"/><circle class="cls-5" cx="35.95" cy="77.45" r="1.25"/><circle class="cls-5" cx="59.25" cy="76.25" r="1.25"/><circle class="cls-5" cx="55.75" cy="70.75" r="1.25"/><circle class="cls-5" cx="79.15" cy="67.25" r="1.25"/><circle class="cls-5" cx="84.05" cy="57.05" r="1.25"/><circle class="cls-5" cx="65.85" cy="80.05" r="1.25"/><circle class="cls-5" cx="41.65" cy="67.85" r="1.25"/><circle class="cls-5" cx="68.95" cy="69.75" r="1.25"/><circle class="cls-5" cx="57.05" cy="84.85" r="1.25"/><circle class="cls-5" cx="36.25" cy="69.75" r="0.75"/><circle class="cls-5" cx="30.65" cy="65.65" r="0.75"/><circle class="cls-5" cx="24.55" cy="71.85" r="0.75"/><circle class="cls-5" cx="26.15" cy="80.05" r="0.75"/><circle class="cls-5" cx="50.75" cy="73.35" r="0.75"/><circle class="cls-5" cx="62.35" cy="69.05" r="0.75"/><circle class="cls-5" cx="77.15" cy="78.85" r="0.75"/><circle class="cls-5" cx="84.55" cy="69.75" r="0.75"/><circle class="cls-5" cx="55.25" cy="7.35" r="0.75"/><circle class="cls-5" cx="30.55" cy="9.35" r="0.75"/><circle class="cls-5" cx="30.55" cy="27.05" r="0.75"/><circle class="cls-5" cx="58.45" cy="31.65" r="0.75"/><circle class="cls-5" cx="21.75" cy="30.95" r="0.75"/><circle class="cls-5" cx="39.55" cy="19.95" r="0.75"/><circle class="cls-5" cx="66.55" cy="19.65" r="0.75"/><circle class="cls-5" cx="57.55" cy="19.95" r="0.75"/><circle class="cls-4" cx="65.55" cy="33.95" r="1.25"/><circle class="cls-4" cx="70.55" cy="43.95" r="1.25"/><circle class="cls-4" cx="39.25" cy="42.15" r="1.25"/><circle class="cls-4" cx="7.85" cy="55.25" r="1.25"/><circle class="cls-4" cx="26.95" cy="47.15" r="1.25"/><circle class="cls-4" cx="42.35" cy="56.95" r="1.25"/><circle class="cls-4" cx="31.75" cy="37.35" r="1.25"/><circle class="cls-4" cx="17.55" cy="51.95" r="1.25"/><circle class="cls-4" cx="25.75" cy="41.35" r="0.75"/><circle class="cls-4" cx="12.05" cy="44.55" r="0.75"/><circle class="cls-4" cx="44.95" cy="49.95" r="0.75"/><circle class="cls-4" cx="36.15" cy="52.75" r="0.75"/><circle class="cls-4" cx="31.25" cy="55.25" r="0.75"/><circle class="cls-4" cx="9.15" cy="63.75" r="0.75"/><circle class="cls-4" cx="25.75" cy="34.45" r="0.75"/><circle class="cls-5" cx="19.95" cy="44.85" r="1.25"/><circle class="cls-5" cx="33.95" cy="46.55" r="1.25"/><circle class="cls-5" cx="25.75" cy="53.55" r="1.25"/><circle class="cls-5" cx="8.25" cy="49.15" r="1.25"/><circle class="cls-5" cx="47.55" cy="54.55" r="1.25"/><circle class="cls-5" cx="36.75" cy="58.25" r="1.25"/><circle class="cls-5" cx="45.55" cy="44.55" r="1.25"/><circle class="cls-5" cx="38.25" cy="37.35" r="0.75"/><circle class="cls-5" cx="13.55" cy="57.05" r="0.75"/><circle class="cls-5" cx="41.45" cy="61.65" r="0.75"/><circle class="cls-5" cx="4.75" cy="60.95" r="0.75"/><circle class="cls-5" cx="22.55" cy="49.95" r="0.75"/><circle class="cls-5" cx="49.55" cy="49.65" r="0.75"/><circle class="cls-5" cx="40.55" cy="49.95" r="0.75"/><circle class="cls-4" cx="48.55" cy="60.95" r="1.25"/><circle class="cls-4" cx="21.55" cy="59.95" r="1.25"/><circle class="cls-5" cx="27.55" cy="61.05" r="0.75"/><circle class="cls-5" cx="17.55" cy="62.05" r="0.75"/><circle class="cls-4" cx="38.75" cy="30.35" r="1.25"/><circle class="cls-4" cx="52.75" cy="38.35" r="1.25"/><circle class="cls-4" cx="59.75" cy="53.35" r="1.25"/><circle class="cls-5" cx="46.55" cy="33.55" r="1.25"/><circle class="cls-5" cx="61.55" cy="41.55" r="1.25"/><circle class="cls-5" cx="68.55" cy="50.55" r="1.25"/><circle class="cls-5" cx="65.55" cy="60.55" r="1.25"/><circle class="cls-5" cx="72.55" cy="57.55" r="1.25"/><circle class="cls-5" cx="80.55" cy="49.55" r="1.25"/><circle class="cls-5" cx="56.55" cy="46.55" r="1.25"/><circle class="cls-4" cx="63.75" cy="48.35" r="1.25"/><circle class="cls-4" cx="76.75" cy="53.35" r="1.25"/><circle class="cls-4" cx="72.75" cy="65.35" r="1.25"/><circle class="cls-4" cx="78.75" cy="61.35" r="1.25"/><circle class="cls-5" cx="56.35" cy="59.05" r="0.75"/><circle class="cls-5" cx="52.35" cy="44.05" r="0.75"/><circle class="cls-5" cx="74.35" cy="49.05" r="0.75"/><circle class="cls-5" cx="65.35" cy="55.05" r="0.75"/><circle class="cls-5" cx="46.35" cy="29.05" r="0.75"/><circle class="cls-4" cx="45.25" cy="39.25" r="0.75"/><circle class="cls-4" cx="53.25" cy="54.25" r="0.75"/><circle class="cls-4" cx="62.25" cy="63.25" r="0.75"/><circle class="cls-4" cx="67.25" cy="39.25" r="0.75"/><circle class="cls-4" cx="60.25" cy="37.25" r="0.75"/><circle class="cls-4" cx="76.25" cy="45.25" r="0.75"/><circle class="cls-5" cx="49.35" cy="81.05" r="0.75"/></svg>